<svg width="332" height="99" viewBox="0 0 332 99" fill="none" xmlns="http://www.w3.org/2000/svg">
<g clip-path="url(#clip0_460_1074)">
<path d="M66.593 10.6547C69.5352 10.6547 71.9203 8.26956 71.9203 5.32735C71.9203 2.38514 69.5352 0 66.593 0C63.6508 0 61.2656 2.38514 61.2656 5.32735C61.2656 8.26956 63.6508 10.6547 66.593 10.6547Z" fill="#FAEBDE"/>
<path d="M273.993 98.5559C277.303 98.5559 279.987 95.8726 279.987 92.5626C279.987 89.2526 277.303 86.5693 273.993 86.5693C270.683 86.5693 268 89.2526 268 92.5626C268 95.8726 270.683 98.5559 273.993 98.5559Z" fill="#347A4E" fill-opacity="0.54"/>
<path d="M302.628 18.6458C304.835 18.6458 306.624 16.857 306.624 14.6503C306.624 12.4436 304.835 10.6548 302.628 10.6548C300.422 10.6548 298.633 12.4436 298.633 14.6503C298.633 16.857 300.422 18.6458 302.628 18.6458Z" fill="#DDDEE4"/>
<path d="M329.265 69.2556C330.736 69.2556 331.929 68.063 331.929 66.5919C331.929 65.1208 330.736 63.9282 329.265 63.9282C327.794 63.9282 326.602 65.1208 326.602 66.5919C326.602 68.063 327.794 69.2556 329.265 69.2556Z" fill="#87E791"/>
<path d="M3.3296 50.6099C5.16849 50.6099 6.6592 49.1192 6.6592 47.2803C6.6592 45.4414 5.16849 43.9507 3.3296 43.9507C1.49071 43.9507 0 45.4414 0 47.2803C0 49.1192 1.49071 50.6099 3.3296 50.6099Z" fill="#DEE3FF"/>
<path d="M51.9408 94.5604C54.1475 94.5604 55.9364 92.7715 55.9364 90.5649C55.9364 88.3582 54.1475 86.5693 51.9408 86.5693C49.7342 86.5693 47.9453 88.3582 47.9453 90.5649C47.9453 92.7715 49.7342 94.5604 51.9408 94.5604Z" fill="#87E791"/>
</g>
<defs>
<clipPath id="clip0_460_1074">
<rect width="332" height="99" fill="white"/>
</clipPath>
</defs>
</svg>
