<svg width="36" height="35" viewBox="0 0 36 35" fill="none" xmlns="http://www.w3.org/2000/svg">
<rect x="0.0530715" y="0.0530715" width="35.8939" height="34.8939" rx="9.92437" fill="#F8F8F8" stroke="#EBEBEB" stroke-width="0.106143"/>
<path d="M28 16.9684C28 17.367 27.7252 17.7017 27.3157 17.7995L20.9589 19.3034L19.3713 25.3187C19.2682 25.7398 18.9156 26 18.4963 26C18.077 26 17.7229 25.7396 17.6198 25.3517L16.0367 19.333L9.68541 17.8297C9.27483 17.7312 9 17.3973 9 16.9684C9 16.5697 9.27483 16.2361 9.6843 16.1383L16.0374 14.6343L17.625 8.6191C17.7281 8.26037 18.0807 8 18.5 8C18.9193 8 19.2734 8.26037 19.3765 8.64828L20.9641 14.667L27.3172 16.171C27.7254 16.2688 28 16.5992 28 16.9684Z" fill="#00D84F"/>
<path opacity="0.4" d="M13.6508 20.7499C13.4269 20.7499 13.2041 20.8293 13.0335 20.988L11.2875 22.6129C10.9465 22.9303 10.9465 23.4444 11.2875 23.7619C11.6285 24.0794 12.1809 24.0793 12.5221 23.7619L14.2681 22.1369C14.6091 21.8196 14.6091 21.3055 14.2681 20.988C14.0982 20.8278 13.8763 20.7499 13.6508 20.7499ZM22.3809 14.2501C22.6048 14.2501 22.8276 14.1707 22.9982 14.012L24.7442 12.3871C25.0852 12.0697 25.0852 11.5556 24.7442 11.2381C24.4031 10.9206 23.8508 10.9207 23.5096 11.2381L21.7636 12.8631C21.4226 13.1804 21.4226 13.6945 21.7636 14.012C21.9334 14.1722 22.1553 14.2501 22.3809 14.2501ZM12.4904 11.2381C12.1494 10.9208 11.597 10.9208 11.2558 11.2381C10.9146 11.5555 10.9148 12.0696 11.2558 12.3871L13.0018 14.0121C13.2034 14.1722 13.4253 14.2501 13.6508 14.2501C13.8763 14.2501 14.0975 14.1707 14.2681 14.012C14.6091 13.6947 14.6091 13.1806 14.2681 12.8631L12.4904 11.2381ZM22.9665 20.9869C22.8283 20.8278 22.6064 20.7499 22.3809 20.7499C22.1553 20.7499 21.9342 20.8293 21.7636 20.988C21.4226 21.3053 21.4226 21.8194 21.7636 22.1369L23.5096 23.7619C23.8506 24.0793 24.403 24.0793 24.7442 23.7619C25.0854 23.4445 25.0852 22.9305 24.7442 22.6129L22.9665 20.9869Z" fill="#00D84F"/>
</svg>
