<svg width="22" height="22" viewBox="0 0 22 22" fill="none" xmlns="http://www.w3.org/2000/svg">
<path d="M22 10.9613C22 11.4486 21.6818 11.8577 21.2077 11.9771L13.8471 13.8153L12.0089 21.1673C11.8895 21.682 11.4812 22 10.9957 22C10.5102 22 10.1002 21.6818 9.98078 21.2077L8.14773 13.8514L0.793633 12.0141C0.318227 11.8938 0 11.4855 0 10.9613C0 10.4741 0.318227 10.0663 0.792344 9.94684L8.14859 8.10863L9.9868 0.75668C10.1062 0.318227 10.5145 0 11 0C11.4855 0 11.8955 0.318227 12.0149 0.792344L13.8531 8.14859L21.2094 9.9868C21.682 10.1062 22 10.5102 22 10.9613Z" fill="#008732"/>
<path opacity="0.4" d="M5.73527 15.1088C5.47076 15.1088 5.20761 15.2095 5.00609 15.4109L2.94359 17.4734C2.54076 17.8763 2.54076 18.5287 2.94359 18.9318C3.34642 19.3348 3.9989 19.3346 4.40195 18.9318L6.46445 16.8693C6.86728 16.4665 6.86728 15.814 6.46445 15.4109C6.26379 15.2076 6.00168 15.1088 5.73527 15.1088ZM16.0478 6.85882C16.3123 6.85882 16.5754 6.7581 16.777 6.55671L18.8395 4.49421C19.2423 4.09137 19.2423 3.43889 18.8395 3.03585C18.4366 2.6328 17.7841 2.63302 17.3811 3.03585L15.3186 5.09835C14.9158 5.50118 14.9158 6.15366 15.3186 6.55671C15.5193 6.75999 15.7814 6.85882 16.0478 6.85882ZM4.36457 3.03589C3.96174 2.63306 3.30926 2.63306 2.90621 3.03589C2.50316 3.43872 2.50338 4.0912 2.90621 4.49425L4.96871 6.55675C5.20676 6.75999 5.46886 6.85882 5.73527 6.85882C6.00168 6.85882 6.26293 6.7581 6.46445 6.55671C6.86728 6.15387 6.86728 5.50139 6.46445 5.09835L4.36457 3.03589ZM16.7396 15.4096C16.5763 15.2076 16.3142 15.1088 16.0478 15.1088C15.7814 15.1088 15.5201 15.2095 15.3186 15.4109C14.9158 15.8138 14.9158 16.4662 15.3186 16.8693L17.3811 18.9318C17.7839 19.3346 18.4364 19.3346 18.8395 18.9318C19.2425 18.529 19.2423 17.8765 18.8395 17.4734L16.7396 15.4096Z" fill="#008732"/>
</svg>
