<svg width="18" height="21" viewBox="0 0 18 21" fill="none" xmlns="http://www.w3.org/2000/svg">
<path d="M14.7516 11.0953C14.7422 9.375 15.5203 8.07656 17.0953 7.12031C16.2141 5.85938 14.8828 5.16563 13.125 5.02969C11.4609 4.89844 9.64219 6 8.97656 6C8.27344 6 6.66094 5.07656 5.39531 5.07656C2.77969 5.11875 0 7.1625 0 11.3203C0 12.5484 0.225 13.8172 0.675 15.1266C1.275 16.8469 3.44062 21.0656 5.7 20.9953C6.88125 20.9672 7.71562 20.1563 9.25312 20.1563C10.7437 20.1563 11.5172 20.9953 12.8344 20.9953C15.1125 20.9625 17.0719 17.1281 17.6437 15.4031C14.5875 13.9641 14.7516 11.1844 14.7516 11.0953V11.0953ZM12.0984 3.39844C13.3781 1.87969 13.2609 0.496875 13.2234 0C12.0938 0.065625 10.7859 0.76875 10.0406 1.63594C9.22031 2.56406 8.7375 3.7125 8.84063 5.00625C10.0641 5.1 11.1797 4.47188 12.0984 3.39844V3.39844Z" fill="white"/>
</svg>
