<svg width="448" height="512" viewBox="0 0 448 512" fill="none" xmlns="http://www.w3.org/2000/svg">
<g clip-path="url(#clip0_482_1122)">
<path d="M64.15 419.1C65.738 435.74 80.66 447.95 97.38 447.95L416 448C433.67 448 448 462.33 448 479.1C448 497.7 433.7 512 416 512H96C42.98 512 0 469.02 0 416V96C0 42.98 42.98 0 96 0H192V191.1C192 204.51 207.52 211.98 217.1 203.59L272 160L326 204.46C336.5 212.8 352 205.4 352 191.1V0H400C426.5 0 448 21.49 448 48V336C448 362.51 426.51 384 400 384H96C77.29 384 62.33 400.1 64.15 419.1Z" fill="#007029"/>
<path opacity="0.4" d="M400 384H96C78.33 384 64 398.33 64 416C64 433.67 78.33 448 96 448H416V381.06C410.1 382.8 405.6 384 400 384Z" fill="#007029"/>
</g>
<defs>
<clipPath id="clip0_482_1122">
<rect width="448" height="512" fill="white"/>
</clipPath>
</defs>
</svg>
