<svg width="22" height="29" viewBox="0 0 22 29" fill="none" xmlns="http://www.w3.org/2000/svg">
<path d="M1.8125 0H19.9375C20.94 0 21.75 0.81166 21.75 1.8125C21.75 2.81334 20.94 3.625 19.9375 3.625H1.8125C0.81166 3.625 0 2.81334 0 1.8125C0 0.81166 0.81166 0 1.8125 0ZM1.8125 25.375H5.4375V24.752C5.4375 23.6758 5.75469 22.6336 6.29277 21.75H15.4062C15.9953 22.6336 16.3125 23.6758 16.3125 24.752V25.375H19.9375C20.94 25.375 21.75 26.185 21.75 27.1875C21.75 28.19 20.94 29 19.9375 29H1.8125C0.81166 29 0 28.19 0 27.1875C0 26.185 0.81166 25.375 1.8125 25.375ZM10.875 11.9342L7.0291 8.09394C6.76855 7.8334 6.54199 7.5502 6.29277 7.25H15.4062C15.208 7.5502 14.9814 7.8334 14.7209 8.09394L10.875 11.9342Z" fill="#008732"/>
<path opacity="0.4" d="M4.46668 18.3459L8.30918 14.5L4.46668 10.6541C2.76746 8.95488 1.8125 6.64961 1.8125 4.24691V3.625H5.4375V4.24691C5.4375 5.68672 6.00957 7.07441 7.0291 8.09394L10.875 11.9342L14.7209 8.09394C15.7404 7.07441 16.3125 5.68672 16.3125 4.24691V3.625H19.9375V4.24691C19.9375 6.64961 18.9803 8.95488 17.2811 10.6541L13.4408 14.5L17.2811 18.3459C18.9803 20.0451 19.9375 22.3504 19.9375 24.752V25.375H16.3125V24.752C16.3125 23.3133 15.7404 21.9256 14.7209 20.9061L10.875 17.0658L7.0291 20.9061C6.00957 21.9256 5.4375 23.3133 5.4375 24.752V25.375H1.8125V24.752C1.8125 22.3504 2.76746 20.0451 4.46668 18.3459Z" fill="#008732"/>
</svg>
