<svg width="110" height="110" viewBox="0 0 110 110" fill="none" xmlns="http://www.w3.org/2000/svg">
<g clip-path="url(#clip0_457_1056)">
<path d="M55 58.4375C63.5443 58.4375 70.4687 51.5109 70.4687 42.9688C70.4687 34.4266 63.5508 27.5 55 27.5C46.4492 27.5 39.5312 34.418 39.5312 42.9688C39.5312 51.5195 46.4492 58.4375 55 58.4375ZM61.875 68.75H48.125C37.9113 68.75 29.3176 75.1695 25.8457 84.1564C33.3223 91.6309 43.6348 96.25 55 96.25C66.3652 96.25 76.6777 91.6244 84.1543 84.1564C80.6738 75.1738 72.0801 68.75 61.875 68.75Z" fill="#008732"/>
<path opacity="0.1" d="M55 0C24.6211 0 0 24.6211 0 55C0 85.3789 24.6211 110 55 110C85.3789 110 110 85.3789 110 55C110 24.6211 85.3789 0 55 0ZM55 27.5C63.5443 27.5 70.4688 34.4266 70.4688 42.9688C70.4688 51.5109 63.5508 58.4375 55 58.4375C46.4578 58.4375 39.5312 51.5109 39.5312 42.9688C39.5312 34.4266 46.4492 27.5 55 27.5ZM55 96.25C43.6283 96.25 33.3223 91.6244 25.8457 84.1564C29.3262 75.1738 37.9199 68.75 48.125 68.75H61.875C72.0887 68.75 80.6824 75.1695 84.1543 84.1564C76.6777 91.6309 66.3652 96.25 55 96.25Z" fill="#15CD27"/>
</g>
<defs>
<clipPath id="clip0_457_1056">
<rect width="110" height="110" fill="white"/>
</clipPath>
</defs>
</svg>
