<svg width="35" height="35" viewBox="0 0 35 35" fill="none" xmlns="http://www.w3.org/2000/svg">
<g clip-path="url(#clip0_358_252)">
<path d="M26.25 4.375H8.75C6.3335 4.375 4.375 6.33418 4.375 8.75V26.25C4.375 28.6658 6.3335 30.625 8.75 30.625H26.25C28.6665 30.625 30.625 28.6658 30.625 26.25V8.75C30.625 6.33418 28.6631 4.375 26.25 4.375ZM26.25 25.1562C26.25 25.7603 25.7604 26.25 25.1562 26.25H9.84375C9.24219 26.25 8.75 25.7578 8.75 25.1562V9.84375C8.75 9.24219 9.24219 8.75 9.84375 8.75H25.1562C25.7578 8.75 26.25 9.24219 26.25 9.84375V25.1562Z" fill="white"/>
<path opacity="0.4" d="M0 10.9375C0 11.5415 0.489727 12.0312 1.09375 12.0312H4.375V9.84375H1.09375C0.489727 9.84375 0 10.3359 0 10.9375ZM0 17.5C0 18.104 0.489727 18.5938 1.09375 18.5938H4.375V16.4062H1.09375C0.489727 16.4062 0 16.8984 0 17.5ZM12.0312 1.09375C12.0312 0.489727 11.5391 0 10.9375 0C10.3359 0 9.84375 0.489727 9.84375 1.09375V4.375H12.0312V1.09375ZM0 24.0625C0 24.6665 0.489727 25.1562 1.09375 25.1562H4.375V22.9688H1.09375C0.489727 22.9688 0 23.4609 0 24.0625ZM18.5938 1.09375C18.5938 0.489727 18.1016 0 17.5 0C16.8984 0 16.4062 0.489727 16.4062 1.09375V4.375H18.5938V1.09375ZM35 10.9375C35 10.3335 34.5104 9.84375 33.9062 9.84375H30.625V12.0312H33.9062C34.5078 12.0312 35 11.5391 35 10.9375ZM33.9062 22.9688H30.625V25.1562H33.9062C34.5104 25.1562 35 24.6665 35 24.0625C35 23.4585 34.5078 22.9688 33.9062 22.9688ZM24.0625 0C23.4585 0 22.9688 0.489727 22.9688 1.09375V4.375H25.1562V1.09375C25.1562 0.489727 24.6641 0 24.0625 0ZM33.9062 16.4062H30.625V18.5938H33.9062C34.5078 18.5938 35 18.1016 35 17.5C35 16.8984 34.5078 16.4062 33.9062 16.4062ZM9.84375 33.9062C9.84375 34.5078 10.3359 35 10.9375 35C11.5417 35 12.0312 34.5103 12.0312 33.9062V30.625H9.84375V33.9062ZM22.9688 33.9062C22.9688 34.5103 23.4585 35 24.0625 35C24.6667 35 25.1562 34.5103 25.1562 33.9062V30.625H22.9688V33.9062ZM16.4062 33.9062C16.4062 34.5103 16.896 35 17.5 35C18.1042 35 18.5938 34.5103 18.5938 33.9062V30.625H16.4062V33.9062ZM10.9375 24.0625H24.0625V10.9375H10.9375V24.0625Z" fill="white"/>
</g>
<defs>
<clipPath id="clip0_358_252">
<rect width="35" height="35" fill="white"/>
</clipPath>
</defs>
</svg>
