<svg width="35" height="35" viewBox="0 0 35 35" fill="none" xmlns="http://www.w3.org/2000/svg">
<path d="M24.1514 10.9375L24.3792 13.4791C24.6716 16.7611 22.4993 19.7634 19.2891 20.5064L19.2361 20.5188C18.303 20.7348 17.333 20.7339 16.4006 20.5162C13.1856 19.7656 11.0125 16.7598 11.3058 13.4752L11.5323 10.9375H24.1514Z" fill="white"/>
<path opacity="0.4" d="M22.7653 31.7188H20.0302V23.7002C24.7135 22.6146 28.0966 18.241 27.6454 13.166L26.5592 0.991209C26.5113 0.427246 26.0397 0 25.486 0H10.2028C9.64708 0 9.17676 0.427246 9.1255 0.991209L8.04064 13.166C7.58769 18.2417 10.9719 22.6133 15.6559 23.7071V31.7188H12.9201C11.4073 31.7188 10.1851 32.941 10.1851 34.4531C10.1851 34.7522 10.4329 35 10.7321 35H24.9508C25.25 35 25.4979 34.7522 25.4979 34.4531C25.4996 32.9423 24.276 31.7188 22.7653 31.7188ZM19.2379 20.5215C18.3048 20.7375 17.3347 20.7367 16.4023 20.5189C13.1874 19.7683 11.0143 16.7626 11.3075 13.478L12.2188 3.28125H23.4707L24.3833 13.4805C24.6757 16.7624 22.5035 19.7648 19.2933 20.5078L19.2379 20.5215Z" fill="white"/>
</svg>
