<svg width="173" height="28" viewBox="0 0 173 28" fill="none" xmlns="http://www.w3.org/2000/svg">
<path d="M1.32031 23.9998V3.51123H6.88265V11.7947H7.16276L13.3254 3.51123H19.8081L12.8852 12.635L19.9682 23.9998H13.3254L8.72342 16.3166L6.88265 18.7176V23.9998H1.32031ZM27.0611 15.3562V23.9998H21.5388V8.63338H26.781V11.5546H26.9411C27.2746 10.5808 27.8615 9.81721 28.7018 9.26364C29.5489 8.71008 30.5359 8.43329 31.6631 8.43329C32.7502 8.43329 33.6939 8.6834 34.4943 9.18361C35.3013 9.67715 35.9249 10.3574 36.365 11.2244C36.8119 12.0915 37.032 13.0819 37.0253 14.1957V23.9998H31.503V15.3562C31.5097 14.5959 31.3163 13.9989 30.9228 13.5654C30.5359 13.1319 29.9957 12.9152 29.3021 12.9152C28.8486 12.9152 28.4517 13.0152 28.1116 13.2153C27.7781 13.4087 27.5213 13.6888 27.3413 14.0556C27.1612 14.4158 27.0678 14.8493 27.0611 15.3562ZM60.08 23.9998L56.2384 8.63338H61.7607L63.5214 17.9973H63.6415L65.6023 8.63338H70.9646L73.0054 17.9172H73.1255L74.8062 8.63338H80.3285L76.4869 23.9998H70.5244L68.3635 15.7563H68.2034L66.0425 23.9998H60.08Z" fill="white"/>
<path d="M88.2417 23.9998L82.1992 3.51123H88.4018L91.2029 16.1165H91.363L94.6844 3.51123H99.5664L102.888 16.1565H103.048L105.849 3.51123H112.051L106.009 23.9998H100.687L97.2054 12.555H97.0454L93.5639 23.9998H88.2417ZM116.426 24.2399C115.445 24.2399 114.578 24.0798 113.825 23.7597C113.078 23.4329 112.491 22.9394 112.064 22.2791C111.637 21.6188 111.424 20.7784 111.424 19.758C111.424 18.9177 111.567 18.2007 111.854 17.6071C112.141 17.0069 112.541 16.5167 113.054 16.1365C113.568 15.7563 114.165 15.4662 114.845 15.2661C115.532 15.0661 116.272 14.936 117.066 14.876C117.926 14.8093 118.617 14.7292 119.137 14.6359C119.664 14.5358 120.044 14.3991 120.277 14.2257C120.511 14.0456 120.628 13.8089 120.628 13.5154V13.4754C120.628 13.0752 120.474 12.7684 120.167 12.555C119.861 12.3416 119.467 12.2349 118.987 12.2349C118.46 12.2349 118.03 12.3516 117.696 12.585C117.37 12.8118 117.173 13.1619 117.106 13.6355H112.024C112.091 12.7017 112.387 11.8414 112.914 11.0544C113.448 10.2607 114.225 9.62713 115.245 9.15359C116.266 8.67339 117.54 8.43329 119.067 8.43329C120.167 8.43329 121.154 8.56335 122.028 8.82346C122.902 9.0769 123.645 9.43371 124.259 9.8939C124.873 10.3474 125.34 10.881 125.66 11.4946C125.986 12.1015 126.15 12.7618 126.15 13.4754V23.9998H120.988V21.8389H120.868C120.561 22.4125 120.187 22.876 119.747 23.2295C119.314 23.583 118.817 23.8397 118.257 23.9998C117.703 24.1599 117.093 24.2399 116.426 24.2399ZM118.227 20.7584C118.647 20.7584 119.04 20.6717 119.407 20.4983C119.781 20.3249 120.084 20.0748 120.317 19.748C120.551 19.4212 120.668 19.0244 120.668 18.5575V17.277C120.521 17.337 120.364 17.3937 120.197 17.4471C120.037 17.5004 119.864 17.5504 119.677 17.5971C119.497 17.6438 119.304 17.6872 119.097 17.7272C118.897 17.7672 118.687 17.8039 118.467 17.8372C118.04 17.9039 117.69 18.014 117.416 18.1674C117.149 18.3141 116.949 18.4975 116.816 18.7176C116.689 18.931 116.626 19.1711 116.626 19.4379C116.626 19.8647 116.776 20.1915 117.076 20.4183C117.376 20.6451 117.76 20.7584 118.227 20.7584ZM142.834 13.6355H137.752C137.726 13.322 137.616 13.0519 137.422 12.8251C137.229 12.5984 136.979 12.4249 136.672 12.3049C136.372 12.1782 136.038 12.1148 135.671 12.1148C135.198 12.1148 134.791 12.2015 134.451 12.3749C134.111 12.5483 133.944 12.7951 133.951 13.1152C133.944 13.342 134.041 13.5521 134.241 13.7455C134.448 13.9389 134.844 14.089 135.431 14.1957L138.553 14.7559C140.127 15.0427 141.297 15.5262 142.064 16.2065C142.838 16.8801 143.228 17.7839 143.235 18.9177C143.228 20.0115 142.901 20.9619 142.254 21.7689C141.614 22.5692 140.737 23.1895 139.623 23.6296C138.516 24.0632 137.252 24.2799 135.831 24.2799C133.484 24.2799 131.646 23.7997 130.319 22.8393C128.999 21.8789 128.262 20.6117 128.108 19.0377H133.591C133.664 19.5246 133.904 19.9014 134.311 20.1682C134.724 20.4283 135.245 20.5584 135.871 20.5584C136.378 20.5584 136.795 20.4717 137.122 20.2982C137.455 20.1248 137.626 19.8781 137.632 19.5579C137.626 19.2645 137.479 19.031 137.192 18.8576C136.912 18.6842 136.472 18.5442 135.871 18.4375L133.15 17.9573C131.583 17.6838 130.409 17.1636 129.629 16.3966C128.849 15.6296 128.462 14.6425 128.468 13.4354C128.462 12.3683 128.742 11.4645 129.309 10.7242C129.882 9.97727 130.699 9.41037 131.76 9.02354C132.827 8.63004 134.091 8.43329 135.551 8.43329C137.772 8.43329 139.523 8.89349 140.804 9.81387C142.091 10.7342 142.768 12.0081 142.834 13.6355ZM154.514 8.63338V12.635H144.39V8.63338H154.514ZM146.351 4.95183H151.873V19.0577C151.873 19.2712 151.91 19.4512 151.983 19.598C152.057 19.738 152.17 19.8447 152.323 19.9181C152.477 19.9848 152.674 20.0181 152.914 20.0181C153.08 20.0181 153.274 19.9981 153.494 19.9581C153.721 19.9181 153.887 19.8847 153.994 19.8581L154.794 23.7397C154.548 23.8131 154.194 23.9031 153.734 24.0098C153.28 24.1165 152.74 24.1865 152.113 24.2199C150.846 24.2866 149.782 24.1565 148.922 23.8297C148.062 23.4963 147.415 22.9727 146.981 22.2591C146.548 21.5454 146.338 20.6517 146.351 19.5779V4.95183ZM163.966 24.2799C162.325 24.2799 160.911 23.9665 159.724 23.3395C158.543 22.7059 157.633 21.7989 156.993 20.6184C156.359 19.4312 156.042 18.0106 156.042 16.3566C156.042 14.7693 156.363 13.382 157.003 12.1948C157.643 11.0077 158.547 10.084 159.714 9.42371C160.881 8.76343 162.258 8.43329 163.846 8.43329C165.006 8.43329 166.057 8.61337 166.997 8.97352C167.937 9.33367 168.741 9.85722 169.408 10.5442C170.075 11.2244 170.589 12.0515 170.949 13.0252C171.309 13.9989 171.489 15.0961 171.489 16.3166V17.5971H157.763V14.5558H166.407C166.4 14.1157 166.287 13.7288 166.067 13.3954C165.853 13.0552 165.563 12.7918 165.196 12.605C164.836 12.4116 164.426 12.3149 163.966 12.3149C163.519 12.3149 163.109 12.4116 162.735 12.605C162.362 12.7918 162.062 13.0519 161.835 13.3853C161.615 13.7188 161.498 14.109 161.485 14.5558V17.8372C161.485 18.3308 161.588 18.7709 161.795 19.1578C162.002 19.5446 162.298 19.8481 162.685 20.0682C163.072 20.2882 163.539 20.3983 164.086 20.3983C164.466 20.3983 164.813 20.3449 165.126 20.2382C165.446 20.1315 165.72 19.9781 165.947 19.778C166.173 19.5713 166.34 19.3245 166.447 19.0377H171.489C171.315 20.1048 170.905 21.0319 170.258 21.8189C169.611 22.5992 168.754 23.2061 167.687 23.6396C166.627 24.0665 165.386 24.2799 163.966 24.2799Z" fill="white"/>
<path d="M47.7905 22.4988L49.767 18.9575L49.7764 20.2526L53.9362 20.2432C54.6795 20.1646 55.3312 19.8628 55.8031 19.2954C54.2969 22.3724 53.8631 24.5497 50.7381 24.551H49.7764L49.767 25.99L47.7905 22.4988ZM43.0293 24.5822C40.8053 23.9068 39.7677 21.1704 38.7505 19.2422C39.2167 19.6655 40.0892 20.2715 40.5959 20.2715C41.5678 20.2738 42.5398 20.2756 43.5117 20.2777H46.4561L46.4467 24.5697L46.4373 24.5823L43.0293 24.5822ZM38.5898 18.1209L40.0112 15.2256L38.6252 14.4652H42.7787L44.7866 18.1066L43.4249 17.2923C42.9881 18.2134 42.5514 19.1345 42.1146 20.0555C41.612 20.0468 41.1094 20.038 40.6067 20.0292C39.6266 19.801 38.9447 19.0307 38.5898 18.1209ZM52.4703 20.0117L50.6347 16.6331L54.3434 14.3901L56.1383 17.9815C56.1926 18.8409 54.8032 20.0369 53.9408 20.0276L52.4703 20.0117ZM41.6134 12.1064L43.5083 9.27031C45.3461 8.58671 46.4107 10.0625 47.0826 10.9927L45.2971 14.4151L41.6134 12.1064ZM48.7929 13.6331C48.4118 12.7358 47.9025 11.7093 47.2658 10.8169C46.6957 10.0179 46.0069 9.32083 45.4851 9.00938L50.2776 9C51.1383 9.07717 51.5565 9.57829 52.013 10.2638L52.7021 11.4745L53.7671 10.7957L51.7624 14.362L47.4397 14.3714L48.7929 13.6331Z" fill="white"/>
</svg>
