<svg width="640" height="512" viewBox="0 0 640 512" fill="none" xmlns="http://www.w3.org/2000/svg">
<path opacity="0.4" d="M158.4 447.9C122.8 447.9 93.9102 419.2 93.9102 383.7C93.9102 381.1 94.0501 378.6 94.3401 376.1L211.9 419.5C200.3 436.7 180.7 447.9 158.4 447.9ZM480.8 480C459.6 480 440.8 469.9 429.1 454.1L545.2 411.9C545.3 413.2 545.3 414.5 545.3 415.8C545.3 451.3 516.4 480 480.8 480Z" fill="#007029"/>
<path d="M249.5 296.7C261.2 328.5 262.4 363.2 253.1 395.8L251.9 399.7L21.4 315.8C10.03 311.7 1.97602 301.5 0.593117 289.5C-0.790283 277.5 4.72902 265.7 14.86 259L23.04 253.7C57.61 230.1 83.95 197.8 98.16 159L112.8 119C137.1 50.4399 213.1 15.0899 282.6 40.0799C287.4 41.8199 292.1 43.8199 296.5 46.0399C232.4 88.1999 203.2 170.3 230.8 245.5L249.5 296.7ZM260.8 234.6C234.7 163.3 271.4 84.4099 342.8 58.4299C414.1 32.4599 493.2 69.2099 519.3 140.5L538 191.7C552 229.9 577.8 262.7 611.6 285.3L625.4 294.5C635.4 301.2 640.8 312.1 639.4 324.9C637.9 336.9 629.9 346.1 618.6 351.1L321.1 459.4C309.8 463.5 297.1 460.9 288.3 452.7C279.5 444.5 276 432 279.3 420.5L283.9 404.6C295.1 365.6 293.6 323.1 279.6 285.8L260.8 234.6Z" fill="#007029"/>
</svg>
