<svg width="35" height="35" viewBox="0 0 35 35" fill="none" xmlns="http://www.w3.org/2000/svg">
<path d="M10 15C11.3828 15 12.5 16.1172 12.5 17.5C12.5 18.8828 11.3828 20 10 20C8.61719 20 7.5 18.8828 7.5 17.5C7.5 16.1172 8.61719 15 10 15ZM17.5 15C18.8828 15 20 16.1172 20 17.5C20 18.8828 18.8828 20 17.5 20C16.1172 20 15 18.8828 15 17.5C15 16.1172 16.1172 15 17.5 15ZM25 20C23.6172 20 22.5 18.8828 22.5 17.5C22.5 16.1172 23.6172 15 25 15C26.3828 15 27.5 16.1172 27.5 17.5C27.5 18.8828 26.3828 20 25 20Z" fill="white"/>
<path opacity="0.4" d="M0 5C0 2.23828 2.23828 0 5 0H30C32.7578 0 35 2.23828 35 5V30C35 32.7578 32.7578 35 30 35H5C2.23828 35 0 32.7578 0 30V5ZM20 17.5C20 16.1172 18.8828 15 17.5 15C16.1172 15 15 16.1172 15 17.5C15 18.8828 16.1172 20 17.5 20C18.8828 20 20 18.8828 20 17.5ZM7.5 17.5C7.5 18.8828 8.61719 20 10 20C11.3828 20 12.5 18.8828 12.5 17.5C12.5 16.1172 11.3828 15 10 15C8.61719 15 7.5 16.1172 7.5 17.5ZM27.5 17.5C27.5 16.1172 26.3828 15 25 15C23.6172 15 22.5 16.1172 22.5 17.5C22.5 18.8828 23.6172 20 25 20C26.3828 20 27.5 18.8828 27.5 17.5Z" fill="white"/>
</svg>
