<svg width="35" height="35" viewBox="0 0 35 35" fill="none" xmlns="http://www.w3.org/2000/svg">
<path d="M20.4844 0C21.3936 0 22.125 0.734864 22.125 1.64062V4.375H13.375V1.64062C13.375 0.734864 14.1064 0 15.0156 0H20.4844ZM13.375 16.4062C13.375 15.8047 13.8672 15.3125 14.4687 15.3125H21.0312C21.6328 15.3125 22.125 15.8047 22.125 16.4062C22.125 17.0078 21.6328 17.5 21.0312 17.5H14.4687C13.8672 17.5 13.375 17.0078 13.375 16.4062ZM13.375 25.1562C13.375 24.5547 13.8672 24.0625 14.4687 24.0625H21.0312C21.6328 24.0625 22.125 24.5547 22.125 25.1562C22.125 25.7578 21.6328 26.25 21.0312 26.25H14.4687C13.8672 26.25 13.375 25.7578 13.375 25.1562Z" fill="white"/>
<path opacity="0.4" d="M20.4844 0C21.3936 0 22.125 0.734864 22.125 1.64062V4.375H13.375V1.64062C13.375 0.734864 14.1064 0 15.0156 0H20.4844ZM9 10.3701C9 9.30373 9.61797 8.33299 10.5853 7.88183L12.2539 7.09569C13.0045 6.74501 13.8262 6.5625 14.6533 6.5625H20.8467C21.6738 6.5625 22.4941 6.74501 23.2461 7.09569L24.914 7.88183C25.8233 8.33299 26.5 9.30373 26.5 10.3701C26.5 11.3545 25.9873 12.2158 25.208 12.7012C25.9941 13.3027 26.5 14.2461 26.5 15.251C26.5 16.4541 25.9189 17.459 25.0303 17.9854C25.9189 18.6348 26.5 19.6396 26.5 20.7197C26.5 21.9229 25.9189 22.9277 25.0303 23.5156C25.9189 24.1035 26.5 25.1084 26.5 26.25C26.5 27.3916 25.9189 28.3965 25.0303 28.9844C25.9189 29.5723 26.5 30.5771 26.5 31.7187C26.5 33.5303 25.0303 35 23.2187 35H12.2812C10.469 35 9 33.5303 9 31.7187C9 30.5771 9.58242 29.5723 10.467 28.9844C9.58242 28.3965 9 27.3916 9 26.25C9 25.1084 9.58242 24.1035 10.467 23.5156C9.58242 22.9277 9 21.9229 9 20.7197C9 19.6396 9.58242 18.6348 10.467 17.9854C9.58242 17.459 9 16.4541 9 15.251C9 14.2461 9.50586 13.3027 10.2899 12.7012C9.51475 12.2158 9 11.3545 9 10.3701ZM14.4687 17.5H21.0312C21.6328 17.5 22.125 17.0078 22.125 16.4062C22.125 15.8047 21.6328 15.3125 21.0312 15.3125H14.4687C13.8672 15.3125 13.375 15.8047 13.375 16.4062C13.375 17.0078 13.8672 17.5 14.4687 17.5ZM14.4687 24.0625C13.8672 24.0625 13.375 24.5547 13.375 25.1562C13.375 25.7578 13.8672 26.25 14.4687 26.25H21.0312C21.6328 26.25 22.125 25.7578 22.125 25.1562C22.125 24.5547 21.6328 24.0625 21.0312 24.0625H14.4687Z" fill="white"/>
</svg>
