<svg width="33" height="33" viewBox="0 0 33 33" fill="none" xmlns="http://www.w3.org/2000/svg">
<rect x="0.0486489" y="0.0486489" width="32.9027" height="31.986" rx="9.09734" fill="#F8F8F8" stroke="white" stroke-width="0.0972977"/>
<path d="M18.7947 20.3959L18.7873 22.7887C18.7873 22.9699 18.7053 23.2398 18.6054 23.3908L18.0244 24.2644C17.8458 24.5323 17.4403 24.7502 17.1192 24.7502H15.0221C14.7 24.7502 14.2944 24.5322 14.1159 24.2644L13.5328 23.3905C13.4148 23.2119 13.353 23.003 13.353 22.7887L13.3457 20.3959H18.7947Z" fill="#96ECB6"/>
<path d="M16.0497 7.3334C12.5813 7.34403 10.083 10.1554 10.083 13.2895C10.083 14.7992 10.6423 16.1756 11.5648 17.2288C12.1271 17.8697 13.0051 19.2096 13.3412 20.3397C13.3423 20.3482 13.3444 20.3573 13.3455 20.3663H18.7952C18.7962 20.3573 18.7984 20.3487 18.7994 20.3397C19.1353 19.2096 20.0135 17.8697 20.5758 17.2288C21.4994 16.2048 22.0573 14.8305 22.0573 13.2895C22.0573 10.0071 19.3665 7.3233 16.0497 7.3334ZM16.0702 10.599C14.5689 10.599 13.3487 11.8199 13.3487 13.2898C13.3487 13.6195 13.1038 13.8644 12.8044 13.8644C12.5051 13.8644 12.2602 13.6195 12.2602 13.3201C12.2602 11.2192 13.9696 9.54072 16.0702 9.54072C16.371 9.54072 16.6144 9.78425 16.6144 10.085C16.6144 10.3858 16.3695 10.599 16.0702 10.599Z" fill="#00D84F"/>
</svg>
