<svg width="30" height="30" viewBox="0 0 30 30" fill="none" xmlns="http://www.w3.org/2000/svg">
<g clip-path="url(#clip0_418_2426)">
<path d="M20.6134 10.7896L15.1612 7.63726C14.7052 7.36961 14.1302 7.36961 13.6742 7.63726L8.222 10.7896C7.766 11.0573 7.47852 11.543 7.47852 12.0783V18.3731C7.47852 18.9085 7.766 19.3942 8.222 19.6618L13.6742 22.8142C14.1302 23.0819 14.7052 23.0819 15.1612 22.8142L20.6134 19.6618C21.0694 19.3942 21.3568 18.9085 21.3568 18.3731V12.0783C21.3568 11.543 21.0694 11.0573 20.6134 10.7896ZM9.46113 18.0857V13.5058L13.4264 15.8057V20.3756L9.46113 18.0857ZM14.4177 14.0907L10.4524 11.7909L14.4177 9.50093L18.3829 11.7909L14.4177 14.0907ZM15.409 20.3756V15.8057L19.3742 13.5058V18.0857L15.409 20.3756Z" fill="#008732"/>
<path d="M14.4177 14.0907L10.4524 11.7909L14.4177 9.50093L18.3829 11.7909L14.4177 14.0907Z" fill="#00D84F" fill-opacity="0.2"/>
<path d="M15.409 20.3756V15.8057L19.3742 13.5058V18.0857L15.409 20.3756Z" fill="#00D84F" fill-opacity="0.2"/>
<path d="M9.46113 18.0857V13.5058L13.4264 15.8057V20.3756L9.46113 18.0857Z" fill="#00D84F" fill-opacity="0.2"/>
<path d="M8.73175 2.65723C9.39007 2.65723 9.9197 3.18933 9.9197 3.84518C9.9197 4.50103 9.39007 5.03314 8.73175 5.03314H4.37591V9.38897C4.37591 10.0473 3.84381 10.5769 3.18796 10.5769C2.5321 10.5769 2 10.0473 2 9.38897V3.84518C2 3.18933 2.5321 2.65723 3.18796 2.65723H8.73175ZM2 21.2685C2 20.6102 2.5321 20.0806 3.18796 20.0806C3.84381 20.0806 4.37591 20.6102 4.37591 21.2685V25.6244H8.73175C9.39007 25.6244 9.9197 26.154 9.9197 26.8123C9.9197 27.4706 9.39007 28.0003 8.73175 28.0003H3.18796C2.5321 28.0003 2 27.4706 2 26.8123V21.2685ZM20.6113 28.0003C19.953 28.0003 19.4233 27.4706 19.4233 26.8123C19.4233 26.154 19.953 25.6244 20.6113 25.6244H24.9671V21.2685C24.9671 20.6102 25.4968 20.0806 26.1551 20.0806C26.8134 20.0806 27.343 20.6102 27.343 21.2685V26.8123C27.343 27.4706 26.8134 28.0003 26.1551 28.0003H20.6113Z" fill="#008732"/>
<path d="M25.2116 3.60771C25.2116 3.76808 25.1068 3.90272 24.9508 3.94203L22.5282 4.54704L21.9232 6.96679C21.8839 7.13622 21.7495 7.24087 21.5897 7.24087C21.4299 7.24087 21.295 7.13613 21.2557 6.98009L20.6524 4.55892L18.2319 3.95419C18.0754 3.9146 17.9707 3.78024 17.9707 3.60771C17.9707 3.44733 18.0754 3.31312 18.2315 3.27381L20.6527 2.6688L21.2577 0.249046C21.297 0.104738 21.4313 0 21.5911 0C21.7509 0 21.8859 0.104738 21.9252 0.260785L22.5302 2.68195L24.9514 3.28696C25.1069 3.32628 25.2116 3.45921 25.2116 3.60771Z" fill="#008732"/>
<path d="M30.4087 8.63017C30.4087 8.79054 30.2953 8.92518 30.1262 8.96449L27.5018 9.5695L26.8463 11.9893C26.8037 12.1587 26.6582 12.2633 26.4851 12.2633C26.3119 12.2633 26.1658 12.1586 26.1232 12.0025L25.4696 9.58138L22.8474 8.97666C22.6779 8.93706 22.5645 8.8027 22.5645 8.63017C22.5645 8.46979 22.6779 8.33558 22.847 8.29627L25.4699 7.69126L26.1253 5.27151C26.1679 5.1272 26.3135 5.02246 26.4866 5.02246C26.6597 5.02246 26.8059 5.1272 26.8485 5.28325L27.5039 7.70441L30.1268 8.30942C30.2954 8.34874 30.4087 8.48167 30.4087 8.63017Z" fill="#008732"/>
</g>
<defs>
<clipPath id="clip0_418_2426">
<rect width="30" height="30" fill="white"/>
</clipPath>
</defs>
</svg>
