<svg width="251" height="80" viewBox="0 0 251 80" fill="none" xmlns="http://www.w3.org/2000/svg">
<path d="M230.933 0.000257883H19.9925C19.2236 0.000257883 18.464 0.000257884 17.6971 0.00422532C17.0551 0.00819276 16.4183 0.0197182 15.7702 0.0294186C14.3622 0.0450935 12.9575 0.162281 11.5684 0.379962C10.1812 0.602381 8.83743 1.02171 7.58258 1.62375C6.32926 2.23089 5.18407 3.01981 4.18855 3.96188C3.18781 4.90131 2.35361 5.98715 1.71803 7.17767C1.0807 8.36582 0.638778 9.63903 0.407518 10.9533C0.174059 12.266 0.0484332 13.5937 0.0317669 14.9247C0.0123084 15.5329 0.0102535 16.1432 0 16.7515V62.6037C0.0102535 63.2196 0.0123084 63.8163 0.0317669 64.4324C0.0484384 65.7634 0.174064 67.0911 0.407518 68.4037C0.638139 69.7187 1.08009 70.9927 1.71803 72.1812C2.35332 73.3679 3.18764 74.4494 4.18855 75.3836C5.1803 76.3298 6.32623 77.1193 7.58258 77.7218C8.83742 78.3254 10.181 78.7473 11.5684 78.9731C12.9578 79.189 14.3623 79.3063 15.7702 79.3238C16.4183 79.3373 17.0551 79.3451 17.6971 79.3451C18.4639 79.349 19.2237 79.349 19.9925 79.349H230.933C231.687 79.349 232.453 79.349 233.206 79.3451C233.845 79.3451 234.5 79.3373 235.139 79.3238C236.545 79.3072 237.946 79.19 239.333 78.9731C240.725 78.7457 242.073 78.324 243.334 77.7218C244.589 77.1189 245.734 76.3295 246.725 75.3836C247.723 74.4457 248.559 73.365 249.203 72.1812C249.836 70.9918 250.274 69.718 250.501 68.4037C250.735 67.0909 250.865 65.7635 250.89 64.4324C250.898 63.8163 250.898 63.2196 250.898 62.6037C250.915 61.883 250.915 61.1663 250.915 60.4339V18.9173C250.915 18.1908 250.915 17.4702 250.898 16.7515C250.898 16.1432 250.898 15.5329 250.89 14.9246C250.865 13.5935 250.735 12.2661 250.501 10.9532C250.273 9.63971 249.835 8.3666 249.203 7.17759C247.908 4.79133 245.856 2.84893 243.334 1.62357C242.073 1.023 240.725 0.603785 239.333 0.379783C237.947 0.161143 236.545 0.0439151 235.139 0.0291408C234.5 0.0194603 233.845 0.00783569 233.206 0.00396744C232.453 0 231.687 0.000257883 230.933 0.000257883Z" fill="black"/>
<path d="M18.1187 77.2006C17.4759 77.2006 16.8487 77.1929 16.2109 77.1796C14.8898 77.1635 13.5718 77.0566 12.2676 76.8595C11.0516 76.6647 9.87356 76.3024 8.77242 75.7844C7.68138 75.2707 6.68626 74.5972 5.82519 73.7896C4.95166 72.9915 4.2244 72.0658 3.67224 71.0493C3.11399 70.0262 2.72765 68.9295 2.52668 67.7975C2.30964 66.5811 2.19222 65.3512 2.17542 64.1183C2.16204 63.7044 2.14453 62.3265 2.14453 62.3265V16.9975C2.14453 16.9975 2.16318 15.6408 2.17552 15.2422C2.19161 14.0112 2.30835 12.7832 2.52474 11.5687C2.72608 10.4336 3.11272 9.33377 3.67127 8.30728C4.2214 7.29146 4.94462 6.36511 5.81289 5.56416C6.68019 4.7556 7.67849 4.07859 8.77139 3.55782C9.87 3.04152 11.0458 2.68172 12.2594 2.49048C13.5678 2.29144 14.8904 2.18383 16.2161 2.16855L18.1197 2.14459H234.929L236.855 2.16951C238.169 2.18403 239.48 2.29068 240.776 2.48855C242.002 2.6822 243.19 3.04451 244.301 3.56357C246.49 4.61307 248.272 6.27348 249.396 8.31207C249.946 9.33148 250.326 10.4223 250.525 11.5477C250.744 12.7721 250.867 14.0098 250.892 15.2508C250.898 15.8065 250.898 16.4035 250.898 16.9975C250.914 17.7334 250.914 18.4337 250.914 19.1399V60.2071C250.914 60.92 250.914 61.6156 250.898 62.3169C250.898 62.955 250.898 63.5396 250.89 64.1412C250.865 65.3601 250.744 66.5757 250.529 67.7782C250.332 68.9184 249.948 70.0237 249.39 71.0552C248.834 72.0607 248.111 72.9783 247.247 73.7743C246.385 74.5862 245.388 75.2637 244.295 75.7807C243.187 76.3026 242.001 76.6663 240.776 76.8595C239.472 77.0576 238.154 77.1646 236.833 77.1796C236.215 77.1929 235.568 77.2006 234.939 77.2006L232.652 77.2045L18.1187 77.2006Z" fill="black"/>
<path d="M49.0497 40.2709C49.071 38.6151 49.5101 36.9917 50.326 35.5516C51.142 34.1115 52.3083 32.9016 53.7165 32.0343C52.8219 30.7545 51.6417 29.7013 50.2697 28.9583C48.8977 28.2152 47.3716 27.8029 45.8127 27.7541C42.4872 27.4044 39.2633 29.7474 37.5687 29.7474C35.8413 29.7474 33.2323 27.7888 30.4227 27.8467C28.6054 27.9055 26.8343 28.4349 25.2819 29.3832C23.7296 30.3316 22.449 31.6665 21.5648 33.258C17.7349 39.9004 20.5917 49.6624 24.2604 55.0316C26.096 57.6607 28.2413 60.5975 31.0483 60.4934C33.7951 60.3792 34.821 58.7388 38.1367 58.7388C41.4216 58.7388 42.3841 60.4934 45.2481 60.4272C48.1956 60.3792 50.0526 57.7863 51.8238 55.1323C53.1427 53.259 54.1575 51.1885 54.8308 48.9976C53.1184 48.2721 51.657 47.0577 50.629 45.5059C49.601 43.954 49.0517 42.1333 49.0497 40.2709Z" fill="white"/>
<path d="M43.6402 24.223C45.2473 22.2904 46.0391 19.8064 45.8473 17.2985C43.392 17.5568 41.1241 18.7323 39.4952 20.5907C38.6989 21.4986 38.0889 22.5548 37.7003 23.699C37.3117 24.8431 37.152 26.0528 37.2303 27.2588C38.4584 27.2715 39.6733 27.0048 40.7836 26.479C41.8939 25.9531 42.8707 25.1817 43.6402 24.223Z" fill="white"/>
<path d="M87.4369 53.8385H78.0632L75.8121 60.4968H71.8418L80.7204 35.8629H84.8455L93.7241 60.4968H89.686L87.4369 53.8385ZM79.034 50.766H86.4642L82.8014 39.9601H82.6989L79.034 50.766Z" fill="white"/>
<path d="M112.899 51.5176C112.899 57.0988 109.917 60.6846 105.416 60.6846C104.276 60.7444 103.143 60.4813 102.145 59.9256C101.147 59.3699 100.326 58.544 99.7752 57.5424H99.69V66.4382H96.0098V42.5366H99.5721V45.5238H99.6398C100.216 44.5271 101.051 43.7054 102.056 43.1463C103.062 42.5872 104.199 42.3116 105.349 42.3487C109.899 42.3487 112.899 45.952 112.899 51.5176ZM109.116 51.5176C109.116 47.8815 107.24 45.4909 104.378 45.4909C101.566 45.4909 99.6746 47.9318 99.6746 51.5176C99.6746 55.1364 101.566 57.5599 104.378 57.5599C107.24 57.5599 109.116 55.1868 109.116 51.5176Z" fill="white"/>
<path d="M132.631 51.5176C132.631 57.0988 129.649 60.6846 125.149 60.6846C124.009 60.7443 122.875 60.4813 121.877 59.9256C120.88 59.3699 120.058 58.5439 119.508 57.5424H119.422V66.4382H115.742V42.5366H119.304V45.5238H119.372C119.948 44.5271 120.783 43.7054 121.789 43.1463C122.794 42.5872 123.932 42.3116 125.081 42.3487C129.632 42.3487 132.631 45.9519 132.631 51.5176ZM128.848 51.5176C128.848 47.8815 126.973 45.4909 124.11 45.4909C121.298 45.4909 119.407 47.9318 119.407 51.5176C119.407 55.1364 121.298 57.5599 124.11 57.5599C126.973 57.5599 128.848 55.1867 128.848 51.5176Z" fill="white"/>
<path d="M145.676 53.6331C145.948 56.076 148.317 57.6799 151.555 57.6799C154.657 57.6799 156.888 56.0759 156.888 53.8732C156.888 51.9612 155.542 50.8163 152.355 50.0317L149.168 49.2626C144.653 48.17 142.556 46.0546 142.556 42.6218C142.556 38.3715 146.254 35.4521 151.504 35.4521C156.701 35.4521 160.263 38.3715 160.383 42.6218H156.668C156.446 40.1634 154.417 38.6795 151.452 38.6795C148.487 38.6795 146.459 40.1809 146.459 42.3661C146.459 44.1077 147.754 45.1325 150.924 45.917L153.634 46.5834C158.679 47.7786 160.776 49.8089 160.776 53.4121C160.776 58.0208 157.111 60.9073 151.282 60.9073C145.828 60.9073 142.146 58.0886 141.908 53.6329L145.676 53.6331Z" fill="white"/>
<path d="M168.717 38.2863V42.5366H172.126V45.456H168.717V55.3572C168.717 56.8954 169.399 57.6121 170.898 57.6121C171.303 57.6051 171.707 57.5766 172.109 57.5268V60.4288C171.435 60.5549 170.75 60.6121 170.065 60.5993C166.435 60.5993 165.019 59.2335 165.019 55.7504V45.456H162.412V42.5366H165.019V38.2863H168.717Z" fill="white"/>
<path d="M174.104 51.5177C174.104 45.8668 177.426 42.3159 182.607 42.3159C187.805 42.3159 191.112 45.8667 191.112 51.5177C191.112 57.1841 187.823 60.7196 182.607 60.7196C177.393 60.7196 174.104 57.1841 174.104 51.5177ZM187.362 51.5177C187.362 47.6413 185.589 45.3534 182.607 45.3534C179.625 45.3534 177.853 47.6587 177.853 51.5177C177.853 55.4096 179.625 57.68 182.607 57.68C185.589 57.68 187.362 55.4096 187.362 51.5177Z" fill="white"/>
<path d="M194.145 42.5366H197.655V45.5935H197.74C197.977 44.6388 198.536 43.795 199.321 43.2041C200.106 42.6132 201.071 42.3111 202.052 42.3486C202.477 42.3472 202.899 42.3933 203.313 42.4862V45.9345C202.778 45.7706 202.219 45.6953 201.66 45.7117C201.125 45.69 200.592 45.7844 200.097 45.9885C199.603 46.1926 199.158 46.5015 198.793 46.8941C198.429 47.2866 198.154 47.7535 197.987 48.2627C197.819 48.7719 197.764 49.3112 197.825 49.8438V60.4966H194.145L194.145 42.5366Z" fill="white"/>
<path d="M220.279 55.2216C219.784 58.482 216.614 60.7195 212.559 60.7195C207.343 60.7195 204.105 57.2189 204.105 51.6029C204.105 45.9694 207.36 42.3158 212.404 42.3158C217.364 42.3158 220.484 45.7292 220.484 51.1748V52.4378H207.821V52.6606C207.762 53.3216 207.845 53.9875 208.063 54.614C208.281 55.2405 208.63 55.8134 209.086 56.2946C209.542 56.7757 210.095 57.1541 210.709 57.4047C211.322 57.6552 211.982 57.7722 212.644 57.7478C213.513 57.8294 214.386 57.6276 215.132 57.1725C215.878 56.7173 216.458 56.0331 216.784 55.2216L220.279 55.2216ZM207.838 49.8613H216.802C216.835 49.267 216.745 48.6723 216.537 48.1144C216.33 47.5566 216.01 47.0477 215.597 46.6196C215.184 46.1916 214.687 45.8537 214.138 45.6272C213.588 45.4006 212.998 45.2902 212.404 45.303C211.805 45.2994 211.211 45.4148 210.656 45.6424C210.101 45.87 209.597 46.2054 209.173 46.6292C208.748 47.053 208.412 47.5568 208.183 48.1115C207.954 48.6663 207.836 49.261 207.838 49.8613Z" fill="white"/>
<path d="M78.5728 17.3209C79.3444 17.2654 80.1186 17.3822 80.8397 17.6627C81.5608 17.9433 82.2107 18.3807 82.7426 18.9433C83.2745 19.5059 83.6751 20.1798 83.9155 20.9163C84.1559 21.6528 84.2301 22.4336 84.1329 23.2023C84.1329 26.9838 82.0926 29.1574 78.5728 29.1574H74.3047V17.3209H78.5728ZM76.14 27.4835H78.3678C78.9192 27.5165 79.4709 27.426 79.9829 27.2184C80.4949 27.0109 80.9543 26.6916 81.3275 26.2838C81.7008 25.8761 81.9786 25.39 82.1407 24.8611C82.3029 24.3322 82.3452 23.7738 82.2647 23.2264C82.3394 22.6812 82.2927 22.1262 82.1281 21.6012C81.9635 21.0762 81.685 20.5941 81.3126 20.1896C80.9402 19.7851 80.483 19.468 79.9739 19.2613C79.4648 19.0545 78.9164 18.9631 78.3678 18.9936H76.14V27.4835Z" fill="white"/>
<path d="M86.2054 24.6872C86.1494 24.1001 86.2164 23.5079 86.4023 22.9483C86.5881 22.3888 86.8886 21.8743 87.2846 21.4379C87.6805 21.0015 88.1632 20.6529 88.7015 20.4143C89.2399 20.1757 89.8221 20.0524 90.4107 20.0524C90.9994 20.0524 91.5816 20.1757 92.12 20.4143C92.6583 20.6529 93.141 21.0015 93.5369 21.4379C93.9329 21.8743 94.2334 22.3888 94.4192 22.9483C94.6051 23.5079 94.6721 24.1001 94.6161 24.6872C94.6732 25.2748 94.6069 25.8679 94.4216 26.4283C94.2363 26.9888 93.9359 27.5042 93.5399 27.9414C93.1438 28.3787 92.6608 28.7281 92.1219 28.9672C91.583 29.2063 91.0001 29.3298 90.4107 29.3298C89.8214 29.3298 89.2385 29.2063 88.6996 28.9672C88.1607 28.7281 87.6777 28.3787 87.2816 27.9414C86.8856 27.5042 86.5852 26.9888 86.3999 26.4283C86.2146 25.8679 86.1483 25.2748 86.2054 24.6872ZM92.8059 24.6872C92.8059 22.7509 91.9376 21.6186 90.4136 21.6186C88.8839 21.6186 88.0234 22.7509 88.0234 24.6872C88.0234 26.639 88.884 27.7625 90.4136 27.7625C91.9376 27.7625 92.8059 26.6312 92.8059 24.6872Z" fill="white"/>
<path d="M105.796 29.1572H103.971L102.127 22.5784H101.988L100.153 29.1572H98.3447L95.8867 20.2247H97.6717L99.2692 27.0408H99.4007L101.234 20.2247H102.922L104.756 27.0408H104.895L106.485 20.2247H108.244L105.796 29.1572Z" fill="white"/>
<path d="M110.313 20.2247H112.007V21.6438H112.138C112.361 21.1341 112.737 20.7069 113.214 20.4216C113.692 20.1363 114.245 20.0072 114.799 20.0523C115.233 20.0196 115.669 20.0852 116.074 20.2441C116.479 20.4029 116.843 20.6511 117.14 20.9702C117.436 21.2893 117.657 21.671 117.786 22.0873C117.915 22.5035 117.949 22.9435 117.886 23.3747V29.1572H116.126V23.8173C116.126 22.3819 115.503 21.668 114.202 21.668C113.907 21.6542 113.613 21.7045 113.34 21.8152C113.066 21.926 112.82 22.0946 112.618 22.3096C112.415 22.5246 112.262 22.7809 112.168 23.0609C112.074 23.3408 112.041 23.6379 112.072 23.9316V29.1573H110.312L110.313 20.2247Z" fill="white"/>
<path d="M120.688 16.7377H122.447V29.1573H120.688V16.7377Z" fill="white"/>
<path d="M124.897 24.6871C124.841 24.1 124.908 23.5077 125.094 22.9481C125.28 22.3886 125.58 21.8741 125.976 21.4377C126.372 21.0013 126.855 20.6526 127.393 20.414C127.932 20.1754 128.514 20.0522 129.103 20.0522C129.691 20.0522 130.274 20.1754 130.812 20.414C131.35 20.6526 131.833 21.0013 132.229 21.4377C132.625 21.8741 132.926 22.3886 133.111 22.9481C133.297 23.5077 133.364 24.1 133.308 24.6871C133.365 25.2747 133.299 25.8678 133.114 26.4283C132.928 26.9887 132.628 27.5041 132.232 27.9414C131.836 28.3786 131.353 28.728 130.814 28.9671C130.275 29.2062 129.692 29.3297 129.103 29.3297C128.513 29.3297 127.93 29.2062 127.391 28.9671C126.852 28.728 126.369 28.3786 125.973 27.9414C125.577 27.5041 125.277 26.9887 125.091 26.4283C124.906 25.8678 124.84 25.2747 124.897 24.6871ZM131.497 24.6871C131.497 22.7508 130.629 21.6185 129.105 21.6185C127.575 21.6185 126.715 22.7508 126.715 24.6871C126.715 26.6389 127.575 27.7625 129.105 27.7625C130.629 27.7624 131.497 26.6311 131.497 24.6871Z" fill="white"/>
<path d="M135.16 26.6312C135.16 25.0233 136.355 24.0963 138.477 23.9646L140.892 23.8251V23.0541C140.892 22.1107 140.27 21.5779 139.067 21.5779C138.084 21.5779 137.404 21.9392 137.208 22.5708H135.504C135.684 21.0365 137.125 20.0524 139.148 20.0524C141.384 20.0524 142.644 21.1672 142.644 23.0541V29.1574H140.95V27.902H140.811C140.528 28.3523 140.132 28.7194 139.661 28.9658C139.19 29.2122 138.663 29.3291 138.133 29.3045C137.758 29.3435 137.38 29.3035 137.022 29.1871C136.664 29.0706 136.334 28.8803 136.054 28.6285C135.774 28.3766 135.55 28.0687 135.396 27.7247C135.242 27.3807 135.162 27.0082 135.16 26.6312ZM140.892 25.8679V25.1211L138.715 25.2606C137.487 25.3429 136.93 25.7614 136.93 26.5489C136.93 27.3528 137.626 27.8206 138.583 27.8206C138.864 27.8491 139.147 27.8207 139.416 27.7372C139.686 27.6537 139.936 27.5168 140.151 27.3346C140.366 27.1524 140.543 26.9287 140.67 26.6767C140.798 26.4248 140.873 26.1497 140.892 25.8679Z" fill="white"/>
<path d="M144.957 24.6871C144.957 21.8646 146.406 20.0765 148.659 20.0765C149.216 20.0508 149.769 20.1845 150.253 20.462C150.737 20.7395 151.133 21.1494 151.393 21.6437H151.525V16.7377H153.284V29.1573H151.598V27.746H151.459C151.178 28.2369 150.769 28.6417 150.276 28.9164C149.782 29.1911 149.223 29.3253 148.659 29.3045C146.39 29.3046 144.957 27.5165 144.957 24.6871ZM146.775 24.6871C146.775 26.5817 147.667 27.7218 149.158 27.7218C150.641 27.7218 151.558 26.5653 151.558 24.6949C151.558 22.8332 150.631 21.6602 149.158 21.6602C147.676 21.6602 146.775 22.808 146.775 24.6871Z" fill="white"/>
<path d="M160.565 24.6872C160.509 24.1001 160.576 23.5079 160.762 22.9483C160.947 22.3888 161.248 21.8743 161.644 21.4379C162.04 21.0015 162.523 20.6529 163.061 20.4143C163.599 20.1757 164.181 20.0524 164.77 20.0524C165.359 20.0524 165.941 20.1757 166.479 20.4143C167.018 20.6529 167.5 21.0015 167.896 21.4379C168.292 21.8743 168.593 22.3888 168.779 22.9483C168.964 23.5079 169.031 24.1001 168.975 24.6872C169.033 25.2748 168.966 25.8679 168.781 26.4283C168.596 26.9888 168.295 27.5042 167.899 27.9414C167.503 28.3787 167.02 28.7281 166.481 28.9672C165.942 29.2063 165.36 29.3298 164.77 29.3298C164.181 29.3298 163.598 29.2063 163.059 28.9672C162.52 28.7281 162.037 28.3787 161.641 27.9414C161.245 27.5042 160.945 26.9888 160.759 26.4283C160.574 25.8679 160.508 25.2748 160.565 24.6872ZM167.165 24.6872C167.165 22.7509 166.297 21.6186 164.773 21.6186C163.243 21.6186 162.383 22.7509 162.383 24.6872C162.383 26.639 163.243 27.7625 164.773 27.7625C166.297 27.7625 167.165 26.6312 167.165 24.6872Z" fill="white"/>
<path d="M171.34 20.2247H173.034V21.6438H173.165C173.389 21.1341 173.765 20.7069 174.242 20.4216C174.719 20.1363 175.273 20.0072 175.827 20.0523C176.26 20.0196 176.696 20.0852 177.101 20.2441C177.506 20.4029 177.871 20.6511 178.167 20.9702C178.464 21.2893 178.685 21.671 178.814 22.0873C178.943 22.5035 178.977 22.9435 178.913 23.3747V29.1572H177.153V23.8173C177.153 22.3819 176.531 21.668 175.229 21.668C174.934 21.6542 174.64 21.7045 174.367 21.8152C174.093 21.926 173.847 22.0946 173.645 22.3096C173.443 22.5246 173.289 22.7809 173.195 23.0609C173.101 23.3408 173.069 23.6379 173.1 23.9316V29.1573H171.34V20.2247Z" fill="white"/>
<path d="M188.855 18.0008V20.2654H190.787V21.7503H188.855V26.3435C188.855 27.2792 189.24 27.6889 190.116 27.6889C190.34 27.6882 190.564 27.6746 190.787 27.6482V29.1166C190.471 29.1733 190.151 29.2034 189.83 29.2067C187.873 29.2067 187.093 28.517 187.093 26.7948V21.7502H185.678V20.2653H187.093V18.0008H188.855Z" fill="white"/>
<path d="M193.191 16.7377H194.936V21.6602H195.075C195.309 21.1458 195.696 20.7161 196.182 20.4298C196.669 20.1434 197.232 20.0143 197.794 20.06C198.226 20.0365 198.657 20.1087 199.058 20.2714C199.458 20.4342 199.818 20.6835 200.111 21.0016C200.405 21.3196 200.624 21.6986 200.755 22.1115C200.885 22.5244 200.923 22.961 200.865 23.3901V29.1573H199.103V23.825C199.103 22.3983 198.44 21.6757 197.197 21.6757C196.894 21.6508 196.59 21.6925 196.305 21.7977C196.02 21.903 195.762 22.0692 195.548 22.2849C195.334 22.5007 195.17 22.7606 195.067 23.0465C194.964 23.3324 194.924 23.6375 194.951 23.9403V29.1572H193.191L193.191 16.7377Z" fill="white"/>
<path d="M211.127 26.7454C210.888 27.5618 210.37 28.268 209.663 28.7404C208.957 29.2128 208.107 29.4214 207.263 29.3297C206.675 29.3452 206.091 29.2325 205.552 28.9993C205.012 28.7662 204.53 28.4182 204.138 27.9795C203.746 27.5409 203.454 27.022 203.282 26.459C203.11 25.8959 203.063 25.3022 203.143 24.7191C203.065 24.1341 203.113 23.5391 203.285 22.9744C203.456 22.4097 203.746 21.8884 204.136 21.4459C204.526 21.0034 205.006 20.65 205.544 20.4095C206.082 20.1691 206.666 20.0472 207.255 20.0523C209.736 20.0523 211.233 21.7503 211.233 24.5553V25.1705H204.936V25.2693C204.909 25.5971 204.95 25.927 205.057 26.238C205.164 26.5489 205.335 26.834 205.559 27.0749C205.782 27.3159 206.054 27.5073 206.355 27.6371C206.657 27.7668 206.983 27.8319 207.311 27.8283C207.732 27.8789 208.159 27.803 208.536 27.6101C208.914 27.4173 209.226 27.1163 209.433 26.7453L211.127 26.7454ZM204.936 23.8667H209.44C209.462 23.5669 209.422 23.2658 209.321 22.9826C209.22 22.6995 209.061 22.4407 208.854 22.2228C208.648 22.0048 208.398 21.8326 208.121 21.7172C207.843 21.6018 207.545 21.5458 207.245 21.5527C206.941 21.5488 206.639 21.6061 206.357 21.721C206.075 21.836 205.819 22.0063 205.604 22.222C205.388 22.4376 205.219 22.6942 205.104 22.9767C204.989 23.2592 204.932 23.5618 204.936 23.8667Z" fill="white"/>
</svg>
